<?xml version="1.0"?><svg xmlns="http://www.w3.org/2000/svg" id="Layer_1" data-name="Layer 1" viewBox="0 0 1500 900" role="img" aria-label="Vantage Point Facility Services">
  <title>Vantage Point Facility Services — Secondary / White on navy card</title>
  <rect x="0" y="0" width="1500" height="900" fill="#0F3060"></rect>
  <g fill="#FFFFFF" transform="translate(187.170 84.730) scale(0.82)">
    <path d="M817.3087591240877 475.45963503649637V477.6202189781022H808.4620437956206V484.4815328467153H815.6445255474454V486.6421167883212H808.4620437956206V495.81H805.8051094890512V475.45963503649637Z"></path>
    <path d="M827.1189781021899 479.54722627737226Q829.2211678832118 479.54722627737226 830.7686131386863 480.45233576642335Q832.3160583941608 481.35744525547443 833.075182481752 482.72970802919707V479.81H835.7613138686133V495.81H833.075182481752V492.831897810219Q832.2868613138688 494.23335766423355 830.7248175182483 495.1530656934307Q829.1627737226279 496.07277372262774 827.0897810218979 496.07277372262774Q824.9583941605841 496.07277372262774 823.2357664233579 495.0216788321168Q821.5131386861316 493.97058394160587 820.5204379562045 492.07277372262774Q819.5277372262775 490.1749635036496 819.5277372262775 487.7516058394161Q819.5277372262775 485.2990510948905 820.5204379562045 483.4450364963503Q821.5131386861316 481.5910218978102 823.2503649635039 480.56912408759126Q824.9875912408761 479.54722627737226 827.1189781021899 479.54722627737226ZM827.6445255474454 481.85379562043795Q826.1554744525549 481.85379562043795 824.9291970802922 482.5545255474452Q823.7029197080294 483.25525547445255 822.9729927007302 484.5983211678832Q822.2430656934308 485.94138686131384 822.2430656934308 487.7516058394161Q822.2430656934308 489.5910218978102 822.9729927007302 490.94868613138686Q823.7029197080294 492.3063503649635 824.9291970802922 493.0216788321168Q826.1554744525549 493.7370072992701 827.6445255474454 493.7370072992701Q829.1335766423359 493.7370072992701 830.3744525547447 493.0216788321168Q831.6153284671534 492.3063503649635 832.3452554744526 490.94868613138686Q833.075182481752 489.5910218978102 833.075182481752 487.78080291970804Q833.075182481752 485.97058394160587 832.3452554744526 484.6275182481752Q831.6153284671534 483.2844525547445 830.3744525547447 482.56912408759126Q829.1335766423359 481.85379562043795 827.6445255474454 481.85379562043795Z"></path>
    <path d="M847.0605839416061 479.54722627737226Q850.0094890510951 479.54722627737226 851.9218978102192 480.97788321167883Q853.8343065693433 482.4085401459854 854.4474452554747 484.94868613138686H851.5861313868616Q851.1773722627739 483.48883211678833 849.9948905109491 482.6421167883212Q848.8124087591243 481.795401459854 847.0605839416061 481.795401459854Q844.7832116788323 481.795401459854 843.3817518248177 483.35744525547443Q841.9802919708031 484.9194890510949 841.9802919708031 487.78080291970804Q841.9802919708031 490.67131386861314 843.3817518248177 492.24795620437953Q844.7832116788323 493.824598540146 847.0605839416061 493.824598540146Q848.8124087591243 493.824598540146 849.9802919708031 493.0070802919708Q851.148175182482 492.1895620437956 851.5861313868616 490.67131386861314H854.4474452554747Q853.8051094890513 493.1238686131387 851.8781021897812 494.5983211678832Q849.9510948905112 496.07277372262774 847.0605839416061 496.07277372262774Q844.7832116788323 496.07277372262774 843.0167883211682 495.05087591240874Q841.2503649635039 494.0289781021898 840.2576642335769 492.16036496350364Q839.2649635036498 490.29175182481754 839.2649635036498 487.78080291970804Q839.2649635036498 485.2990510948905 840.2576642335769 483.4450364963503Q841.2503649635039 481.5910218978102 843.0167883211682 480.56912408759126Q844.7832116788323 479.54722627737226 847.0605839416061 479.54722627737226Z"></path>
    <path d="M857.5423357664235 475.40124087591244Q857.5423357664235 474.6421167883212 858.067883211679 474.1165693430657Q858.5934306569345 473.5910218978102 859.3525547445257 473.5910218978102Q860.0824817518251 473.5910218978102 860.5934306569345 474.1165693430657Q861.104379562044 474.6421167883212 861.104379562044 475.40124087591244Q861.104379562044 476.16036496350364 860.5934306569345 476.6859124087591Q860.0824817518251 477.2114598540146 859.3525547445257 477.2114598540146Q858.5934306569345 477.2114598540146 858.067883211679 476.6859124087591Q857.5423357664235 476.16036496350364 857.5423357664235 475.40124087591244ZM860.6372262773725 479.81V495.81H857.9802919708031V479.81Z"></path>
    <path d="M867.8197080291974 474.2041605839416V495.81H865.162773722628V474.2041605839416Z"></path>
    <path d="M871.9072992700733 475.40124087591244Q871.9072992700733 474.6421167883212 872.4328467153288 474.1165693430657Q872.9583941605842 473.5910218978102 873.7175182481755 473.5910218978102Q874.4474452554748 473.5910218978102 874.9583941605842 474.1165693430657Q875.4693430656937 474.6421167883212 875.4693430656937 475.40124087591244Q875.4693430656937 476.16036496350364 874.9583941605842 476.6859124087591Q874.4474452554748 477.2114598540146 873.7175182481755 477.2114598540146Q872.9583941605842 477.2114598540146 872.4328467153288 476.6859124087591Q871.9072992700733 476.16036496350364 871.9072992700733 475.40124087591244ZM875.0021897810223 479.81V495.81H872.3452554744529V479.81Z"></path>
    <path d="M882.7686131386865 481.99978102189783V491.4304379562044Q882.7686131386865 492.5983211678832 883.26496350365 493.0800729927007Q883.7613138686135 493.56182481751824 884.9875912408762 493.56182481751824H886.9437956204383V495.81H884.5496350364967Q882.330656934307 495.81 881.221167883212 494.78810218978106Q880.1116788321171 493.76620437956205 880.1116788321171 491.4304379562044V481.99978102189783H878.0386861313872V479.81H880.1116788321171V475.78080291970804H882.7686131386865V479.81H886.9437956204383V481.99978102189783Z"></path>
    <path d="M903.9364963503654 479.81 894.301459854015 503.34284671532845H891.5569343065697L894.7102189781026 495.63481751824816L888.2576642335771 479.81H891.2065693430661L896.2284671532851 492.773503649635L901.1919708029201 479.81Z"></path>
    <path d="M913.8051094890516 490.37934306569343H916.6372262773727Q916.7832116788326 491.81 917.8197080291975 492.78810218978106Q918.8562043795625 493.76620437956205 920.8416058394165 493.76620437956205Q922.7394160583947 493.76620437956205 923.8343065693435 492.817299270073Q924.9291970802924 491.86839416058393 924.9291970802924 490.37934306569343Q924.9291970802924 489.2114598540146 924.286861313869 488.48153284671537Q923.6445255474457 487.7516058394161 922.6810218978108 487.37204379562047Q921.7175182481757 486.9924817518248 920.0824817518253 486.5545255474453Q918.0678832116793 486.0289781021898 916.8562043795625 485.5034306569343Q915.6445255474457 484.97788321167883 914.7832116788326 483.85379562043795Q913.9218978102194 482.72970802919707 913.9218978102194 480.831897810219Q913.9218978102194 479.16766423357666 914.7686131386865 477.8829927007299Q915.6153284671537 476.5983211678832 917.1481751824822 475.89759124087595Q918.6810218978106 475.1968613138686 920.6664233576647 475.1968613138686Q923.5277372262778 475.1968613138686 925.3525547445261 476.6275182481752Q927.1773722627742 478.05817518248176 927.41094890511 480.4231386861314H924.4912408759129Q924.345255474453 479.25525547445255 923.26496350365 478.36474452554745Q922.1846715328472 477.47423357664235 920.4036496350369 477.47423357664235Q918.7394160583947 477.47423357664235 917.6883211678837 478.3355474452555Q916.6372262773727 479.1968613138686 916.6372262773727 480.74430656934305Q916.6372262773727 481.85379562043795 917.26496350365 482.5545255474452Q917.8927007299275 483.25525547445255 918.8124087591245 483.62021897810223Q919.7321167883216 483.98518248175185 921.396350364964 484.45233576642335Q923.41094890511 485.0070802919708 924.6372262773727 485.54722627737226Q925.8635036496355 486.0873722627737 926.7394160583947 487.2114598540146Q927.6153284671537 488.3355474452555 927.6153284671537 490.2625547445256Q927.6153284671537 491.7516058394161 926.8270072992705 493.0654744525548Q926.0386861313873 494.37934306569343 924.4912408759128 495.1968613138686Q922.9437956204384 496.0143795620438 920.8416058394165 496.0143795620438Q918.8270072992706 496.0143795620438 917.2357664233582 495.2990510948905Q915.6445255474457 494.58372262773725 914.7394160583947 493.31364963503654Q913.8343065693435 492.0435766423358 913.8051094890516 490.37934306569343Z"></path>
    <path d="M946.0386861313873 488.802700729927H933.2503649635041Q933.396350364964 491.16766423357666 934.8708029197085 492.4961313868613Q936.345255474453 493.824598540146 938.4474452554749 493.824598540146Q940.1700729927012 493.824598540146 941.323357664234 493.0216788321168Q942.4766423357669 492.21875912408757 942.9437956204384 490.87569343065695H945.8051094890516Q945.1627737226282 493.18226277372264 943.2357664233582 494.6275182481752Q941.308759124088 496.07277372262774 938.4474452554749 496.07277372262774Q936.1700729927012 496.07277372262774 934.374452554745 495.05087591240874Q932.5788321167888 494.0289781021898 931.5569343065698 492.1457664233577Q930.5350364963508 490.2625547445256 930.5350364963508 487.78080291970804Q930.5350364963508 485.2990510948905 931.5277372262778 483.4304379562044Q932.5204379562049 481.56182481751824 934.316058394161 480.5545255474452Q936.1116788321173 479.54722627737226 938.4474452554749 479.54722627737226Q940.7248175182486 479.54722627737226 942.4766423357669 480.5399270072993Q944.2284671532851 481.5326277372263 945.1773722627742 483.26985401459854Q946.1262773722632 485.0070802919708 946.1262773722632 487.1968613138686Q946.1262773722632 487.9559854014599 946.0386861313873 488.802700729927ZM938.3306569343071 481.795401459854Q936.316058394161 481.795401459854 934.9000000000004 483.0800729927007Q933.4839416058398 484.36474452554745 933.2795620437961 486.6421167883212H943.381751824818Q943.381751824818 485.1238686131387 942.7102189781026 484.0289781021898Q942.0386861313873 482.9340875912409 940.8854014598544 482.36474452554745Q939.7321167883216 481.795401459854 938.3306569343071 481.795401459854Z"></path>
    <path d="M957.454744525548 479.5180291970803V482.2625547445256H956.7540145985406Q952.2868613138692 482.2625547445256 952.2868613138692 487.10927007299273V495.81H949.6299270072998V479.81H952.2868613138692V482.4085401459854Q952.9875912408764 481.03627737226276 954.2868613138692 480.2771532846715Q955.5861313868618 479.5180291970803 957.454744525548 479.5180291970803Z"></path>
    <path d="M966.4766423357669 493.35744525547443 971.440145985402 479.81H974.2722627737231L967.9948905109494 495.81H964.9000000000005L958.6226277372268 479.81H961.48394160584Z"></path>
    <path d="M976.462043795621 475.40124087591244Q976.462043795621 474.6421167883212 976.9875912408764 474.1165693430657Q977.5131386861319 473.5910218978102 978.2722627737231 473.5910218978102Q979.0021897810225 473.5910218978102 979.5131386861319 474.1165693430657Q980.0240875912414 474.6421167883212 980.0240875912414 475.40124087591244Q980.0240875912414 476.16036496350364 979.5131386861319 476.6859124087591Q979.0021897810225 477.2114598540146 978.2722627737231 477.2114598540146Q977.5131386861319 477.2114598540146 976.9875912408764 476.6859124087591Q976.462043795621 476.16036496350364 976.462043795621 475.40124087591244ZM979.5569343065699 479.81V495.81H976.9000000000005V479.81Z"></path>
    <path d="M990.8854014598546 479.54722627737226Q993.8343065693437 479.54722627737226 995.7467153284678 480.97788321167883Q997.6591240875919 482.4085401459854 998.2722627737232 484.94868613138686H995.4109489051101Q995.0021897810225 483.48883211678833 993.8197080291977 482.6421167883212Q992.6372262773729 481.795401459854 990.8854014598546 481.795401459854Q988.6080291970809 481.795401459854 987.2065693430663 483.35744525547443Q985.8051094890517 484.9194890510949 985.8051094890517 487.78080291970804Q985.8051094890517 490.67131386861314 987.2065693430663 492.24795620437953Q988.6080291970809 493.824598540146 990.8854014598546 493.824598540146Q992.6372262773729 493.824598540146 993.8051094890517 493.0070802919708Q994.9729927007305 492.1895620437956 995.4109489051101 490.67131386861314H998.2722627737232Q997.6299270072999 493.1238686131387 995.7029197080299 494.5983211678832Q993.7759124087597 496.07277372262774 990.8854014598546 496.07277372262774Q988.6080291970809 496.07277372262774 986.8416058394166 495.05087591240874Q985.0751824817524 494.0289781021898 984.0824817518254 492.16036496350364Q983.0897810218984 490.29175182481754 983.0897810218984 487.78080291970804Q983.0897810218984 485.2990510948905 984.0824817518254 483.4450364963503Q985.0751824817524 481.5910218978102 986.8416058394166 480.56912408759126Q988.6080291970809 479.54722627737226 990.8854014598546 479.54722627737226Z"></path>
    <path d="M1016.3160583941611 488.802700729927H1003.527737226278Q1003.6737226277378 491.16766423357666 1005.1481751824823 492.4961313868613Q1006.6226277372268 493.824598540146 1008.7248175182488 493.824598540146Q1010.447445255475 493.824598540146 1011.6007299270079 493.0216788321168Q1012.7540145985407 492.21875912408757 1013.2211678832123 490.87569343065695H1016.0824817518254Q1015.4401459854021 493.18226277372264 1013.5131386861319 494.6275182481752Q1011.5861313868619 496.07277372262774 1008.7248175182488 496.07277372262774Q1006.447445255475 496.07277372262774 1004.6518248175189 495.05087591240874Q1002.8562043795627 494.0289781021898 1001.8343065693437 492.1457664233577Q1000.8124087591247 490.2625547445256 1000.8124087591247 487.78080291970804Q1000.8124087591247 485.2990510948905 1001.8051094890517 483.4304379562044Q1002.7978102189787 481.56182481751824 1004.593430656935 480.5545255474452Q1006.3890510948911 479.54722627737226 1008.7248175182488 479.54722627737226Q1011.0021897810225 479.54722627737226 1012.7540145985407 480.5399270072993Q1014.505839416059 481.5326277372263 1015.454744525548 483.26985401459854Q1016.403649635037 485.0070802919708 1016.403649635037 487.1968613138686Q1016.403649635037 487.9559854014599 1016.3160583941611 488.802700729927ZM1008.6080291970809 481.795401459854Q1006.5934306569349 481.795401459854 1005.1773722627743 483.0800729927007Q1003.7613138686137 484.36474452554745 1003.5569343065699 486.6421167883212H1013.6591240875919Q1013.6591240875919 485.1238686131387 1012.9875912408766 484.0289781021898Q1012.3160583941611 482.9340875912409 1011.1627737226283 482.36474452554745Q1010.0094890510954 481.795401459854 1008.6080291970809 481.795401459854Z"></path>
    <path d="M1019.0313868613144 491.10927007299273H1021.7759124087597Q1021.8927007299276 492.3063503649635 1022.9000000000005 493.0654744525548Q1023.9072992700736 493.824598540146 1025.542335766424 493.824598540146Q1027.0605839416064 493.824598540146 1027.9364963503656 493.1530656934307Q1028.8124087591248 492.4815328467153 1028.8124087591248 491.45963503649637Q1028.8124087591248 490.4085401459854 1027.8781021897817 489.89759124087595Q1026.9437956204386 489.38664233576645 1024.9875912408766 488.89029197080293Q1023.2065693430663 488.4231386861314 1022.0824817518255 487.94138686131384Q1020.9583941605846 487.45963503649637 1020.1554744525554 486.51072992700733Q1019.3525547445262 485.56182481751824 1019.3525547445262 484.0143795620438Q1019.3525547445262 482.788102189781 1020.0824817518255 481.76620437956205Q1020.8124087591248 480.74430656934305 1022.1554744525554 480.14576642335766Q1023.498540145986 479.54722627737226 1025.2211678832123 479.54722627737226Q1027.8781021897817 479.54722627737226 1029.5131386861322 480.89029197080293Q1031.1481751824824 482.2333576642336 1031.2649635036503 484.56912408759126H1028.608029197081Q1028.5204379562051 483.3136496350365 1027.600729927008 482.5545255474452Q1026.6810218978108 481.795401459854 1025.1335766423365 481.795401459854Q1023.7029197080299 481.795401459854 1022.8562043795628 482.4085401459854Q1022.0094890510956 483.0216788321168 1022.0094890510956 484.0143795620438Q1022.0094890510956 484.802700729927 1022.520437956205 485.3136496350365Q1023.0313868613144 485.824598540146 1023.8051094890518 486.1311678832117Q1024.578832116789 486.43773722627736 1025.9510948905115 486.817299270073Q1027.6737226277378 487.2844525547445 1028.7540145985408 487.7370072992701Q1029.8343065693437 488.1895620437956 1030.608029197081 489.09467153284675Q1031.3817518248181 489.99978102189783 1031.4109489051102 491.45963503649637Q1031.4109489051102 492.773503649635 1030.6810218978108 493.824598540146Q1029.9510948905115 494.87569343065695 1028.6226277372268 495.47423357664235Q1027.2941605839421 496.07277372262774 1025.5715328467159 496.07277372262774Q1023.7321167883218 496.07277372262774 1022.2722627737232 495.4450364963504Q1020.8124087591248 494.817299270073 1019.9656934306577 493.69321167883214Q1019.1189781021905 492.56912408759126 1019.0313868613144 491.10927007299273Z"></path>
  </g>
  <g fill="#FFFFFF">
    <path d="M505.08,398.1c-20.94,0-37.98,17.04-37.98,37.98v38.21h19.41v-21.57l4.97-2.61,8.02-4.21,8.69-4.57v28.19h-8.69v-17.73l-4.76,2.65v19.84h18.22v-40.84l-13.45,7.07v-21.14l19.46,10.59v40.24l7.38-4.37c9.1-5.38,14.75-15.29,14.75-25.86v-41.89h-36.01ZM536.32,439.99c0,8.89-4.76,17.23-12.41,21.76l-.2.12v-34.72l-28.98-15.77v31.65l-12.99,6.82v19.68h-9.88v-33.44c0-18.32,14.9-33.22,33.22-33.22h31.24v37.13Z"></path>
    <polygon points="564.09 404.31 573.07 404.31 588.74 449.56 604.41 404.31 613.39 404.31 593.11 462.36 584.37 462.36 564.09 404.31"></polygon>
    <path d="M614.55,457.39c-3.95-3.84-5.92-8.81-5.92-14.91s1.96-11.13,5.88-14.95c3.92-3.82,8.59-5.73,14-5.73,2.6,0,5.08.53,7.43,1.59,2.36,1.06,4.28,2.52,5.77,4.37v-5.17h8.51v39.76h-8.51v-5.49c-1.54,1.96-3.48,3.5-5.85,4.61-2.36,1.11-4.84,1.67-7.43,1.67-5.3,0-9.93-1.92-13.88-5.77M638.6,451.59c2.39-2.52,3.58-5.58,3.58-9.18s-1.19-6.65-3.58-9.14c-2.39-2.49-5.38-3.74-8.99-3.74s-6.53,1.25-8.95,3.74c-2.41,2.49-3.62,5.54-3.62,9.14s1.21,6.67,3.62,9.18c2.41,2.52,5.39,3.78,8.95,3.78s6.6-1.26,8.99-3.78"></path>
    <path d="M657.38,422.6h8.43v5.17c2.92-3.98,7-5.96,12.25-5.96s8.98,1.54,11.85,4.61c2.86,3.07,4.29,7.32,4.29,12.72v23.22h-8.59v-22.5c0-3.34-.82-5.95-2.46-7.83-1.64-1.88-4.03-2.82-7.16-2.82-2.92,0-5.33,1.02-7.24,3.06-1.91,2.04-2.86,4.79-2.86,8.23v21.87h-8.51v-39.76Z"></path>
    <path d="M697.14,422.6h6.76v-9.38l8.59-4.69v14.08h8.43v7.63h-8.43v15.82c0,3.6.49,5.88,1.47,6.84.98.96,3.3,1.43,6.96,1.43v8.03h-1.27c-6.04,0-10.18-1.15-12.41-3.46-2.23-2.31-3.34-6.56-3.34-12.76v-15.9h-6.76v-7.63Z"></path>
    <path d="M729.55,457.39c-3.95-3.84-5.92-8.81-5.92-14.91s1.96-11.13,5.89-14.95c3.92-3.82,8.59-5.73,14-5.73,2.6,0,5.08.53,7.43,1.59,2.36,1.06,4.28,2.52,5.77,4.37v-5.17h8.51v39.76h-8.51v-5.49c-1.54,1.96-3.48,3.5-5.85,4.61-2.36,1.11-4.84,1.67-7.43,1.67-5.3,0-9.93-1.92-13.88-5.77M753.6,451.59c2.39-2.52,3.58-5.58,3.58-9.18s-1.19-6.65-3.58-9.14c-2.39-2.49-5.38-3.74-8.99-3.74s-6.53,1.25-8.95,3.74c-2.41,2.49-3.62,5.54-3.62,9.14s1.21,6.67,3.62,9.18c2.41,2.52,5.39,3.78,8.95,3.78s6.6-1.26,8.99-3.78"></path>
    <path d="M776.47,457.39c-3.95-3.84-5.92-8.81-5.92-14.91s1.96-11.13,5.89-14.95c3.92-3.82,8.59-5.73,14-5.73,2.6,0,5.06.56,7.4,1.67,2.33,1.11,4.27,2.62,5.8,4.53v-5.41h8.51v38.81c0,5.99-1.79,10.87-5.37,14.63-3.58,3.76-8.47,5.64-14.67,5.64-4.77,0-8.85-1.02-12.25-3.06-3.39-2.04-5.88-4.76-7.47-8.15l7.87-3.74c2.17,4.77,6.12,7.16,11.85,7.16,3.55,0,6.38-1.15,8.47-3.46,2.09-2.31,3.14-5.21,3.14-8.71v-5.01c-1.54,2.02-3.5,3.59-5.89,4.73-2.39,1.14-4.88,1.71-7.48,1.71-5.3,0-9.93-1.92-13.88-5.77M800.52,451.59c2.39-2.52,3.58-5.58,3.58-9.18s-1.19-6.65-3.58-9.14c-2.39-2.49-5.38-3.74-8.99-3.74s-6.53,1.25-8.95,3.74c-2.41,2.49-3.62,5.54-3.62,9.14s1.21,6.67,3.62,9.18c2.41,2.52,5.39,3.78,8.95,3.78s6.6-1.26,8.99-3.78"></path>
    <path d="M823.39,457.27c-3.9-3.92-5.84-8.8-5.84-14.63s1.99-10.76,5.96-14.79c3.98-4.03,8.88-6.05,14.71-6.05s10.76,1.91,14.63,5.73c3.87,3.82,5.8,8.67,5.8,14.55v3.34h-32.92c.58,3.08,2,5.54,4.26,7.4,2.25,1.86,5.1,2.78,8.55,2.78,2.65,0,4.98-.64,7-1.91,2.02-1.27,3.55-3.02,4.61-5.25l7,3.9c-3.87,7.21-10.07,10.82-18.61,10.82-6.2,0-11.25-1.96-15.15-5.89M830.59,431.75c-2.17,1.64-3.66,3.79-4.45,6.44h23.86c-.64-2.86-1.99-5.06-4.06-6.6-2.07-1.54-4.64-2.31-7.71-2.31-2.92,0-5.46.82-7.63,2.46"></path>
    <path d="M864.47,404.31h19.09c6.1,0,11.12,1.95,15.07,5.84,3.95,3.9,5.92,8.74,5.92,14.51s-1.98,10.62-5.92,14.51c-3.95,3.9-9,5.85-15.15,5.85h-10.34v17.34h-8.67v-58.05ZM873.14,412.26v24.73h9.78c3.92,0,7.06-1.17,9.42-3.5,2.36-2.33,3.54-5.27,3.54-8.83s-1.18-6.51-3.54-8.87c-2.36-2.36-5.5-3.54-9.42-3.54h-9.78Z"></path>
    <path d="M913.5,457.15c-4-4-6-8.89-6-14.67s2-10.67,6-14.67c4-4,8.87-6,14.59-6s10.6,2,14.63,6c4.03,4,6.04,8.89,6.04,14.67s-2.02,10.67-6.04,14.67c-4.03,4-8.91,6-14.63,6s-10.59-2-14.59-6M936.76,451.47c2.39-2.49,3.58-5.49,3.58-8.99s-1.19-6.49-3.58-8.99c-2.39-2.49-5.28-3.74-8.67-3.74s-6.27,1.24-8.63,3.74c-2.36,2.49-3.54,5.49-3.54,8.99s1.18,6.49,3.54,8.99c2.36,2.49,5.24,3.74,8.63,3.74s6.28-1.25,8.67-3.74"></path>
    <path d="M954.1,405.98h8.59v11.13h-8.59v-11.13ZM954.1,422.6h8.59v39.76h-8.59v-39.76Z"></path>
    <path d="M969.37,422.6h8.43v5.17c2.92-3.98,7-5.96,12.25-5.96s8.98,1.54,11.85,4.61c2.86,3.07,4.29,7.32,4.29,12.72v23.22h-8.59v-22.5c0-3.34-.82-5.95-2.46-7.83-1.64-1.88-4.03-2.82-7.16-2.82-2.92,0-5.33,1.02-7.24,3.06-1.91,2.04-2.86,4.79-2.86,8.23v21.87h-8.51v-39.76Z"></path>
    <path d="M1009.13,422.6h6.76v-9.38l8.59-4.69v14.08h8.43v7.63h-8.43v15.82c0,3.6.49,5.88,1.47,6.84.98.96,3.3,1.43,6.96,1.43v8.03h-1.27c-6.04,0-10.18-1.15-12.41-3.46-2.23-2.31-3.34-6.56-3.34-12.76v-15.9h-6.76v-7.63Z"></path>
  </g>
</svg>